<svg width="48" height="48" viewBox="0 0 48 48" fill="none" xmlns="http://www.w3.org/2000/svg">
<path d="M13.105 34.7657C20.5752 42.2359 29.6737 48 37.0921 48C40.4266 48 43.3474 46.8368 45.6996 44.2521C47.0692 42.727 47.9226 40.9435 47.9226 39.1858C47.9226 37.8934 47.4314 36.6527 46.1907 35.7739L38.2811 30.1389C37.0663 29.3118 36.0582 28.8982 35.1277 28.8982C33.9386 28.8982 32.9047 29.5703 31.7157 30.7335L29.8804 32.5428C29.5961 32.8271 29.2343 32.9564 28.8982 32.9564C28.4847 32.9564 28.1228 32.8013 27.8385 32.6721C26.2617 31.819 23.5218 29.467 20.9628 26.9338C18.4297 24.4007 16.0775 21.6607 15.2504 20.0582C15.0953 19.7739 14.9661 19.4119 14.9661 19.0243C14.9661 18.6882 15.0695 18.3522 15.3538 18.0679L17.1632 16.181C18.3264 14.9919 18.9983 13.958 18.9983 12.769C18.9983 11.8385 18.5849 10.8304 17.7318 9.61557L12.1744 1.78354C11.2697 0.542826 10.0032 0 8.60745 0C6.90145 0 5.11791 0.775418 3.61869 2.24883C1.11146 4.65273 0 7.62525 0 10.9079C0 18.3264 5.66074 27.3215 13.105 34.7657Z" fill="#9C23A7"/>
</svg>
