<svg width="653" height="467" viewBox="0 0 653 467" fill="none" xmlns="http://www.w3.org/2000/svg">
<g opacity="0.7">
<path d="M627.769 466.647C590.905 466.647 91.4213 467.574 69.6652 466.424C69.6652 466.424 31.647 466.999 20.8239 466.424C20.6316 465.881 -60.5691 275.466 99.0304 199.293C156.552 171.826 95.8989 128.518 135.812 81.0582C181.687 26.5079 231.764 86.839 282.776 62.1189C291.786 57.7434 300.824 50.717 309.889 39.9538C314.998 33.8856 320.574 28.5839 326.563 24.0167C327.469 23.3141 328.403 22.6114 329.337 21.9407C332.908 19.3857 336.644 17.0542 340.462 14.9782C343.045 13.5729 345.654 12.2954 348.319 11.1137C352.549 9.22936 356.889 7.60052 361.34 6.22718C367.63 4.27895 374.14 2.80979 380.761 1.85165C383.645 1.40452 386.557 1.08514 389.496 0.82963C446.496 -4.12078 488.085 13.0939 522.532 52.1862C542.228 74.5748 558.93 115.551 547.2 181.376C539.756 223.183 604.969 244.709 627.44 286.644C684.494 393.222 628.291 465.242 627.769 466.647Z" fill="#EBF3FA"/>
<path d="M627.769 466.647C590.905 466.647 91.4213 467.574 69.6652 466.424C69.6652 466.424 31.647 466.999 20.8239 466.424C20.6316 465.881 -60.5691 275.466 99.0304 199.293C156.552 171.826 95.8989 128.518 135.812 81.0582C181.687 26.5079 231.764 86.839 282.776 62.1189C291.786 57.7434 300.824 50.717 309.889 39.9538C314.998 33.8856 320.574 28.5839 326.563 24.0167C327.469 23.3141 328.403 22.6114 329.337 21.9407C332.908 19.3857 336.644 17.0542 340.462 14.9782C343.045 13.5729 345.654 12.2954 348.319 11.1137C352.549 9.22936 356.889 7.60052 361.34 6.22718C367.63 4.27895 374.14 2.80979 380.761 1.85165C383.645 1.40452 386.557 1.08514 389.496 0.82963C446.496 -4.12078 488.085 13.0939 522.532 52.1862C542.228 74.5748 558.93 115.551 547.2 181.376C539.756 223.183 604.969 244.709 627.44 286.644C684.494 393.222 628.291 465.242 627.769 466.647Z" fill="url(#paint0_linear_278_6970)"/>
</g>
<defs>
<linearGradient id="paint0_linear_278_6970" x1="653" y1="233.5" x2="-18.7985" y2="226.412" gradientUnits="userSpaceOnUse">
<stop stop-color="white"/>
<stop offset="1" stop-color="white" stop-opacity="0"/>
</linearGradient>
</defs>
</svg>
