<svg width="24" height="24" viewBox="0 0 24 24" fill="none" xmlns="http://www.w3.org/2000/svg">
<path d="M17.2622 13.8469C17.1594 13.9372 17.083 14.0536 17.0411 14.1839C16.9992 14.3141 16.9933 14.4533 17.0241 14.5866L18.2916 20.0747C18.3251 20.218 18.3157 20.3681 18.2645 20.5061C18.2133 20.6441 18.1227 20.764 18.0038 20.8509C17.885 20.9377 17.7432 20.9877 17.5962 20.9946C17.4491 21.0014 17.3033 20.9648 17.1769 20.8894L12.3863 17.9831C12.2699 17.9124 12.1363 17.8749 12 17.8749C11.8638 17.8749 11.7302 17.9124 11.6138 17.9831L6.82317 20.8894C6.69677 20.9648 6.55096 21.0014 6.40392 20.9946C6.25687 20.9877 6.1151 20.9377 5.99625 20.8509C5.87741 20.764 5.78675 20.6441 5.73558 20.5061C5.68441 20.3681 5.67498 20.218 5.70848 20.0747L6.97598 14.5866C7.00679 14.4533 7.00092 14.3141 6.95899 14.1839C6.91707 14.0536 6.84065 13.9372 6.73786 13.8469L2.50879 10.1578C2.39573 10.0617 2.31371 9.93426 2.27312 9.79153C2.23252 9.64881 2.23518 9.49726 2.28074 9.35604C2.32631 9.21483 2.41274 9.0903 2.5291 8.99822C2.64546 8.90615 2.78651 8.85065 2.93442 8.83876L8.50879 8.35689C8.64479 8.34477 8.77491 8.29576 8.8851 8.21514C8.9953 8.13452 9.08139 8.02534 9.1341 7.89939L11.3119 2.70939C11.3701 2.57521 11.4662 2.46096 11.5885 2.3807C11.7107 2.30045 11.8538 2.25769 12 2.25769C12.1463 2.25769 12.2893 2.30045 12.4116 2.3807C12.5339 2.46096 12.63 2.57521 12.6882 2.70939L14.866 7.89939C14.9187 8.02534 15.0048 8.13452 15.115 8.21514C15.2252 8.29576 15.3553 8.34477 15.4913 8.35689L21.0657 8.83876C21.2136 8.85065 21.3546 8.90615 21.471 8.99822C21.5873 9.0903 21.6738 9.21483 21.7193 9.35604C21.7649 9.49726 21.7676 9.64881 21.727 9.79153C21.6864 9.93426 21.6044 10.0617 21.4913 10.1578L17.2622 13.8469Z" fill="black" fill-opacity="0.04"/>
<path d="M22.4249 9.12093C22.3341 8.84098 22.1629 8.59394 21.9327 8.41057C21.7025 8.2272 21.4234 8.1156 21.1303 8.08968L15.5624 7.60968L13.3799 2.41968C13.2663 2.14735 13.0747 1.91473 12.8291 1.75111C12.5835 1.58749 12.295 1.50018 11.9999 1.50018C11.7049 1.50018 11.4164 1.58749 11.1708 1.75111C10.9252 1.91473 10.7336 2.14735 10.6199 2.41968L8.44401 7.60968L2.86964 8.0925C2.57529 8.11723 2.29481 8.22832 2.06335 8.41182C1.83189 8.59533 1.65976 8.84309 1.56855 9.12404C1.47733 9.40498 1.4711 9.7066 1.55063 9.99107C1.63015 10.2755 1.79189 10.5302 2.01557 10.7231L6.24464 14.4187L4.97714 19.9069C4.91011 20.1941 4.92924 20.4946 5.03212 20.771C5.135 21.0474 5.31707 21.2874 5.55557 21.4608C5.79407 21.6343 6.07841 21.7336 6.37305 21.7464C6.66769 21.7591 6.95955 21.6847 7.21214 21.5325L11.9934 18.6262L16.7849 21.5325C17.0375 21.6847 17.3294 21.7591 17.624 21.7464C17.9187 21.7336 18.203 21.6343 18.4415 21.4608C18.68 21.2874 18.8621 21.0474 18.965 20.771C19.0678 20.4946 19.087 20.1941 19.0199 19.9069L17.7534 14.4131L21.9815 10.7231C22.2052 10.5295 22.3666 10.2742 22.4455 9.98908C22.5244 9.704 22.5172 9.40196 22.4249 9.12093ZM20.9981 9.58968L16.7699 13.2797C16.5642 13.4587 16.4111 13.6904 16.3272 13.9499C16.2433 14.2094 16.2317 14.4869 16.2937 14.7525L17.564 20.25L12.7762 17.3437C12.5426 17.2015 12.2744 17.1262 12.0009 17.1262C11.7274 17.1262 11.4592 17.2015 11.2256 17.3437L6.44432 20.25L7.7062 14.7562C7.76821 14.4906 7.75664 14.2132 7.67273 13.9537C7.58881 13.6942 7.43573 13.4624 7.22995 13.2834L2.99995 9.59531C2.9996 9.59251 2.9996 9.58967 2.99995 9.58687L8.57245 9.105C8.84451 9.08102 9.10487 8.98321 9.32543 8.82213C9.54599 8.66104 9.71838 8.4428 9.82401 8.19093L11.9999 3.0075L14.1749 8.19093C14.2806 8.4428 14.453 8.66104 14.6735 8.82213C14.8941 8.98321 15.1544 9.08102 15.4265 9.105L20.9999 9.58687C20.9999 9.58687 20.9999 9.5925 20.9999 9.59343L20.9981 9.58968Z" fill="black"/>
</svg>
